<svg id="Capa_1" enable-background="new 0 0 511.989 511.989" height="512" viewBox="0 0 511.989 511.989" width="512" xmlns="http://www.w3.org/2000/svg"><g><g><g><path d="m350.949 358.603h-9.35c19.901 0 36.085 15.939 36.461 35.759.397 20.441-16.733 37.184-37.184 37.184h-13.301c10.073 0 19.188 4.084 25.788 10.684s10.684 15.715 10.684 25.788c0 3.33-.448 6.549-1.283 9.604-4.206 15.491-18.373 26.867-35.188 26.867h-210.275l-55.221-37.776c-5.581-3.819-11.672-6.752-18.068-8.728s-13.077-2.994-19.84-2.994v-211.232h10.276c17.558 0 32.734-11.926 37.307-28.884.02-.092.051-.194.081-.295 8.402-30.687 34.221-51.932 63.868-55.996l19.779-72.189c6.528-23.832 28.13-39.486 51.708-39.486 4.685 0 9.451.621 14.198 1.915 28.578 7.832 45.393 37.337 37.572 65.916l-26.837 97.967h128.175c19.901 0 36.085 15.949 36.461 35.759.397 20.451-16.733 37.184-37.184 37.184h-8.626c10.073 0 19.188 4.084 25.788 10.684s10.684 15.725 10.684 25.788c-.001 20.144-16.327 36.481-36.473 36.481z" fill="#ffddce"/><g fill="#ffcbbe"><path d="m362.764 477.621c-4.206 15.491-18.373 26.867-35.188 26.867h-210.275l-55.221-37.775c-5.581-3.819-11.672-6.752-18.068-8.728s-13.077-2.994-19.84-2.994v-32.275h29.111c24.856 0 48.694 9.875 66.269 27.453 17.574 17.578 41.412 27.453 66.269 27.453h176.943z"/><path d="m231.765 52.86c-12.894 6.63-23.079 18.444-27.214 33.538l-19.779 72.189c-29.648 4.064-55.466 25.309-63.868 55.996-.027.098-.054.199-.08.303-9.087 35.799-41.396 60.815-78.33 60.815h-18.325v-31.939h10.276c17.558 0 32.734-11.926 37.307-28.884.031-.092.051-.194.082-.295 8.402-30.687 34.221-51.932 63.879-55.996l19.768-72.189c6.529-23.832 28.13-39.486 51.708-39.486 4.685 0 9.451.621 14.198 1.915 3.666 1.008 7.129 2.362 10.378 4.033z"/></g></g><g fill="#95d6a4"><path d="m425.541 189.994-.676-2.524c-2.385-8.901 2.529-18.129 11.246-21.118l26.813-9.193c9.604-3.293 19.988 2.237 22.616 12.044l1.68 6.271c2.628 9.807-3.6 19.788-13.564 21.739l-27.817 5.445c-9.043 1.771-17.913-3.763-20.298-12.664z"/><path d="m382.708 114.452-1.848-1.848c-6.516-6.516-6.874-16.965-.819-23.912l18.624-21.368c6.671-7.654 18.429-8.056 25.608-.877l4.591 4.591c7.179 7.179 6.776 18.937-.877 25.608l-21.368 18.624c-6.946 6.056-17.395 5.698-23.911-.818z"/><path d="m307.842 70.447-2.524-.676c-8.901-2.385-14.436-11.255-12.665-20.299l5.445-27.817c1.95-9.964 11.932-16.192 21.739-13.564l6.271 1.68c9.807 2.628 15.337 13.012 12.044 22.616l-9.193 26.813c-2.988 8.718-12.216 13.632-21.117 11.247z"/></g></g><g><path d="m312.576 496.989h-173.73c-12.574 0-24.707-3.752-35.085-10.85l-37.443-25.622c-6.192-4.232-12.952-7.494-20.082-9.692-4.75-1.472-9.624-2.461-14.56-2.959v-196.607h2.77c20.757 0 39.077-14.156 44.55-34.425.016-.057.03-.115.044-.173.01-.034.02-.068.029-.102 7.369-26.911 30-46.753 57.656-50.55 2.975-.408 5.42-2.552 6.213-5.449l15.81-57.71c1.095-3.995-1.257-8.121-5.252-9.215-3.992-1.094-8.12 1.257-9.215 5.252l-14.544 53.089c-31.325 6.192-56.584 29.492-65.117 60.551-.05.171-.097.344-.139.516-3.749 13.676-16.083 23.216-30.037 23.216h-10.27c-4.142 0-7.5 3.358-7.5 7.5v211.23c0 4.142 3.358 7.5 7.5 7.5 5.987 0 11.915.896 17.63 2.667 5.701 1.758 11.1 4.363 16.044 7.743l37.441 25.621c12.884 8.812 27.945 13.47 43.554 13.47h173.73c4.142 0 7.5-3.358 7.5-7.5s-3.354-7.501-7.497-7.501z"/><path d="m404.265 248.325c-.456-23.774-20.18-43.116-43.969-43.116h-118.34l24.233-88.488c4.316-15.755 2.239-32.247-5.849-46.436-8.088-14.19-21.22-24.379-36.971-28.689-5.292-1.451-10.737-2.187-16.184-2.187-21.166 0-41.158 11.23-52.174 29.307-2.156 3.537-1.036 8.152 2.501 10.307 3.537 2.157 8.152 1.036 10.307-2.501 8.312-13.64 23.396-22.113 39.366-22.113 4.106 0 8.217.556 12.221 1.654 11.89 3.253 21.799 10.942 27.902 21.65s7.671 23.154 4.414 35.045l-25.318 92.449h-15.934c-4.142 0-7.5 3.358-7.5 7.5s3.358 7.5 7.5 7.5l149.827.002c15.675 0 28.671 12.742 28.972 28.403.146 7.633-2.796 14.916-8.282 20.508-5.63 5.738-13.433 9.029-21.41 9.029h-8.63c-4.142 0-7.5 3.358-7.5 7.5s3.358 7.5 7.5 7.5c7.74 0 15.016 3.013 20.486 8.483 5.471 5.471 8.483 12.75 8.483 20.497 0 15.974-12.996 28.97-28.97 28.97h-9.35c-4.142 0-7.5 3.358-7.5 7.5s3.358 7.5 7.5 7.5c15.674 0 28.671 12.742 28.971 28.403.146 7.633-2.795 14.916-8.282 20.508-5.629 5.738-13.433 9.029-21.41 9.029h-13.3c-4.142 0-7.5 3.358-7.5 7.5s3.358 7.5 7.5 7.5c7.74 0 15.016 3.013 20.483 8.479 5.473 5.481 8.487 12.762 8.487 20.5 0 11.482-6.792 21.895-17.305 26.527-3.79 1.671-5.509 6.098-3.838 9.888 1.237 2.807 3.985 4.477 6.867 4.477 1.01 0 2.037-.206 3.021-.639 15.95-7.029 26.255-22.83 26.255-40.253 0-11.741-4.572-22.786-12.876-31.103-.377-.377-.761-.748-1.15-1.11 5.766-2.309 11.067-5.8 15.474-10.291 8.33-8.491 12.794-19.606 12.571-31.3-.249-12.959-6.223-24.603-15.46-32.513 14.673-7.133 24.812-22.191 24.812-39.573 0-11.753-4.573-22.799-12.876-31.104-.873-.873-1.775-1.704-2.707-2.494 4.562-2.235 8.759-5.236 12.36-8.907 8.33-8.489 12.795-19.605 12.572-31.298z"/><path d="m494.465 173.534-1.68-6.272c-1.789-6.674-6.312-12.365-12.412-15.613s-13.347-3.825-19.881-1.584l-26.814 9.192c-12.396 4.25-19.45 17.496-16.058 30.152l.676 2.524v.001c2.97 11.081 13.096 18.549 24.202 18.549 1.58 0 3.181-.151 4.783-.465l27.817-5.446c6.781-1.327 12.768-5.451 16.426-11.313 3.657-5.861 4.729-13.051 2.941-19.725zm-15.667 11.786c-1.487 2.383-3.825 3.993-6.582 4.533l-27.817 5.446c-5.159 1.007-10.254-2.174-11.614-7.245l-.676-2.525c-1.359-5.072 1.467-10.378 6.434-12.082l26.814-9.192c2.658-.912 5.486-.686 7.966.635 2.479 1.32 4.246 3.542 4.973 6.255l1.68 6.272c.727 2.713.308 5.519-1.178 7.903z"/><path d="m441.484 84.29c.237-6.906-2.43-13.669-7.316-18.555l-4.591-4.591c-4.886-4.885-11.645-7.553-18.554-7.316-6.906.236-13.471 3.359-18.011 8.568l-18.624 21.368c-8.612 9.879-8.098 24.876 1.169 34.144l1.848 1.847v-.001c4.852 4.852 11.273 7.304 17.709 7.304 5.857 0 11.727-2.031 16.433-6.134l21.368-18.625c5.209-4.539 8.332-11.103 8.569-18.009zm-18.425 6.703-21.368 18.625c-3.959 3.451-9.968 3.244-13.681-.469 0 0 0 0 0-.001l-1.847-1.846c-3.713-3.713-3.919-9.722-.468-13.681l18.624-21.368c1.846-2.118 4.41-3.337 7.217-3.433.119-.004.238-.006.356-.006 2.674 0 5.176 1.035 7.078 2.938l4.591 4.591c1.986 1.987 3.027 4.627 2.931 7.435s-1.315 5.369-3.433 7.215z"/><path d="m303.377 77.016 2.523.676c2.144.574 4.305.849 6.436.849 10.451 0 20.188-6.611 23.718-16.908l9.193-26.813c2.241-6.537 1.663-13.783-1.585-19.882-3.249-6.099-8.939-10.622-15.613-12.41l-6.271-1.681c-6.675-1.788-13.865-.715-19.727 2.942-5.862 3.658-9.985 9.645-11.313 16.426l-5.445 27.817c-2.518 12.861 5.426 25.592 18.084 28.984zm-3.364-26.102 5.445-27.817c.947-5.568 7.039-9.352 12.437-7.761l6.271 1.681c2.713.727 4.935 2.493 6.255 4.972 1.321 2.479 1.546 5.309.635 7.966l-9.193 26.813c-1.703 4.968-7.012 7.795-12.082 6.435l-2.524-.676c-5.07-1.36-8.252-6.461-7.244-11.613z"/></g></g></svg>